<?xml version="1.0" standalone="no"?><!DOCTYPE svg PUBLIC "-//W3C//DTD SVG 1.1//EN" "http://www.w3.org/Graphics/SVG/1.1/DTD/svg11.dtd"><svg class="c-logo" version="1.1" xmlns="http://www.w3.org/2000/svg" xmlns:xlink="http://www.w3.org/1999/xlink" style="height:30px;min-height:0px;min-width:0px;width:220px;perspective-origin:110px 15px;transform-origin:110px 15px;">
    <svg id="icon-fp-logo-large" viewBox="0 0 175 24" width="100%" height="100%">
    <title>Forward Partners Logo</title>
    <g fill="none" fill-rule="evenodd">
      <g fill="#25282A">
        <path d="M2.304 9.2h12.224A1.192 1.192 0 0 0 15.68 8c0-.647-.506-1.182-1.152-1.216H2.304v-4.48h4.048V1.208c0-.664-.536-1.204-1.2-1.208H1.208C.54 0 0 .54 0 1.208v22.448l2.304-.976V9.2z"></path>
        <path d="M20 2.288A8.968 8.968 0 0 0 14.248 0h-3.672C9.91 0 9.368.54 9.368 1.208v1.096h4.368a7.072 7.072 0 0 1 4.448 1.456 5.232 5.232 0 0 1 1.976 4 5.392 5.392 0 0 1-1.488 4.048 6.616 6.616 0 0 1-4.8 1.888H8c-.667 0-1.208.54-1.208 1.208V20.8l.584-.24 1.72-.728V16h5.064A8.984 8.984 0 0 0 20 13.696 7.664 7.664 0 0 0 22.464 8 7.664 7.664 0 0 0 20 2.288z"></path>
      </g>
      <g fill="#25282A">
        <path d="M113.6 17.112a5.248 5.248 0 0 1-1.344-3.712 5.2 5.2 0 0 1 1.344-3.688 4.432 4.432 0 0 1 3.392-1.432c1.28-.05 2.484.6 3.144 1.696V8.224h2.528V18.4h-2.528v-1.656a3.544 3.544 0 0 1-3.2 1.824 4.4 4.4 0 0 1-3.336-1.456zm5.736-1.536c.554-.578.843-1.36.8-2.16a2.896 2.896 0 0 0-.8-2.16 2.592 2.592 0 0 0-3.712 0 2.888 2.888 0 0 0-.8 2.152 2.928 2.928 0 0 0 .8 2.168 2.56 2.56 0 0 0 3.704 0h.008zM126.664 8.224v1.968a3.2 3.2 0 0 1 2.936-1.92v2.6h-.632a2.352 2.352 0 0 0-1.712.568 2.696 2.696 0 0 0-.576 1.96v5h-2.544V8.216l2.528.008zM135.448 16.296h1.016V18.4h-1.416a3.552 3.552 0 0 1-2.4-.704 2.904 2.904 0 0 1-.8-2.328v-5.072h-1.232v-2.08h1.232V5.944h2.552v2.28h2.048v2.08H134.4v5.088a.888.888 0 0 0 .232.696c.24.163.528.237.816.208zM140.32 8.224v1.704a3.32 3.32 0 0 1 3.104-1.64 3.712 3.712 0 0 1 2.8 1.128c.76.86 1.15 1.99 1.08 3.136V18.4H144.8v-5.496a2.496 2.496 0 0 0-.592-1.8 2.144 2.144 0 0 0-1.6-.624 2.176 2.176 0 0 0-1.6.624 2.472 2.472 0 0 0-.608 1.8V18.4h-2.544V8.224h2.464zM153.44 18.576a4.728 4.728 0 0 1-3.56-1.416 5.16 5.16 0 0 1-1.376-3.744 5.08 5.08 0 0 1 1.384-3.728 4.8 4.8 0 0 1 3.576-1.4c1.334-.05 2.63.44 3.6 1.36a4.8 4.8 0 0 1 1.408 3.64c.002.327-.022.653-.072.976h-7.296a2.4 2.4 0 0 0 .72 1.6c.435.4 1.01.613 1.6.592a2.104 2.104 0 0 0 1.952-1.08h2.744a4.392 4.392 0 0 1-1.68 2.328 5 5 0 0 1-3 .872zm1.672-7.552a2.4 2.4 0 0 0-1.6-.6 2.256 2.256 0 0 0-1.6.6 2.52 2.52 0 0 0-.8 1.6h4.728a2.184 2.184 0 0 0-.728-1.6zM162.32 8.224V10.2a3.2 3.2 0 0 1 2.928-1.912v2.592h-.632a2.352 2.352 0 0 0-1.712.568 2.696 2.696 0 0 0-.576 1.96V18.4h-2.544V8.224h2.536zM166.088 11.352c0-.864.414-1.675 1.112-2.184a5.304 5.304 0 0 1 5.848 0 3.08 3.08 0 0 1 1.176 2.4h-2.6c-.075-.843-.592-1.264-1.552-1.264a1.88 1.88 0 0 0-1.12.288.928.928 0 0 0-.4.8.88.88 0 0 0 .592.8c.46.212.948.362 1.448.448a17.26 17.26 0 0 1 1.688.408 3.2 3.2 0 0 1 1.432.864c.41.45.623 1.047.592 1.656.01.88-.418 1.704-1.144 2.2a5.472 5.472 0 0 1-5.84 0 3.096 3.096 0 0 1-1.248-2.4h2.6c.096.843.63 1.264 1.6 1.264.402.02.8-.09 1.136-.312a.984.984 0 0 0 .432-.8.904.904 0 0 0-.6-.8 5.6 5.6 0 0 0-1.448-.464 18.892 18.892 0 0 1-1.688-.4 3.2 3.2 0 0 1-1.432-.8 2.152 2.152 0 0 1-.584-1.704z"></path>
      </g>
      <path d="M37.048 17.072a4.976 4.976 0 0 1-1.456-3.728A4.888 4.888 0 0 1 37.064 9.6a5.488 5.488 0 0 1 7.336 0c1 .97 1.538 2.32 1.48 3.712a4.928 4.928 0 0 1-1.488 3.728 5.12 5.12 0 0 1-3.688 1.424 5.032 5.032 0 0 1-3.656-1.392zm3.656-.72a2.472 2.472 0 0 0 1.832-.8c.554-.6.842-1.4.8-2.216a3.032 3.032 0 0 0-.76-2.208 2.464 2.464 0 0 0-1.832-.8 2.4 2.4 0 0 0-1.808.8 3.088 3.088 0 0 0-.736 2.216c-.054.807.21 1.602.736 2.216a2.4 2.4 0 0 0 1.768.792zM49.72 8.224v1.912c.672-1.272 1.144-1.912 2.4-1.912l.8 2.592H52c-.63-.028-1.245.2-1.704.632a2.52 2.52 0 0 0-.592 1.896V18.4H47.2V8.224h2.52z" fill="#25282A"></path>
      <path fill="#000" d="M66.08 8.216h2.44L65.392 18.4h-2.664L61 11.624 59.248 18.4h-2.664L53.456 8.216H56l1.872 7.736 1.84-7.592H62.4l1.8 7.568z"></path>
      <path d="M70.016 17.112a5.24 5.24 0 0 1-1.344-3.704 5.192 5.192 0 0 1 1.336-3.688A4.432 4.432 0 0 1 73.4 8.288c1.277-.05 2.48.6 3.136 1.696v-1.76h2.52V18.4h-2.528v-1.68a3.536 3.536 0 0 1-3.152 1.824 4.384 4.384 0 0 1-3.36-1.432zm5.72-1.536c.552-.576.84-1.355.8-2.152a2.896 2.896 0 0 0-.8-2.152 2.592 2.592 0 0 0-3.704 0 2.88 2.88 0 0 0-.8 2.144c-.04.8.25 1.58.8 2.16a2.56 2.56 0 0 0 3.696 0h.008zM83.072 8.224V10.2a3.2 3.2 0 0 1 2.92-1.912v2.592h-.632a2.344 2.344 0 0 0-1.712.568c-.44.55-.647 1.25-.576 1.952v5h-2.544V8.224h2.544zM94.256 6.152v3.832a3.496 3.496 0 0 0-3.136-1.696 4.432 4.432 0 0 0-3.392 1.432 5.192 5.192 0 0 0-1.328 3.688 5.24 5.24 0 0 0 1.344 3.704 4.392 4.392 0 0 0 3.36 1.448c1.307.02 2.52-.68 3.152-1.824V18.4H96.8V5.08l-2.544 1.072zm-.8 9.432a2.56 2.56 0 0 1-3.696 0 2.92 2.92 0 0 1-.8-2.16 2.88 2.88 0 0 1 .8-2.144 2.592 2.592 0 0 1 3.704 0c.552.576.84 1.355.8 2.152.04.794-.25 1.57-.8 2.144l-.008.008zM105.6 17.344v-3.952h2.096a6.128 6.128 0 0 0 2.176-.352 3.288 3.288 0 0 0 1.416-.952 3.952 3.952 0 0 0 .96-2.616 3.4 3.4 0 0 0-1.184-2.576 4.8 4.8 0 0 0-3.368-1.096h-4.64v12.6l2.544-1.056zm3.56-6.4a2 2 0 0 1-1.464.496H105.6V7.76h2.096a2 2 0 0 1 1.464.496c.347.36.53.845.504 1.344a1.8 1.8 0 0 1-.52 1.344h.016zM34.792 11.016h-4.256V7.72h5.248V5.768H28V18.4l2.544-1.064V12.96h3.816c.02-.67.167-1.33.432-1.944z" fill="#25282A"></path>
    </g>
  </svg>

  </svg>
