<?xml version="1.0" standalone="no"?>
<!DOCTYPE svg PUBLIC "-//W3C//DTD SVG 1.1//EN" "http://www.w3.org/Graphics/SVG/1.1/DTD/svg11.dtd" >
<svg xmlns="http://www.w3.org/2000/svg">
<metadata></metadata>
<defs>
<font id="lacuna_regularregular" horiz-adv-x="529" >
<font-face units-per-em="1000" ascent="800" descent="-200" />
<missing-glyph horiz-adv-x="210" />
<glyph horiz-adv-x="1000" />
<glyph horiz-adv-x="1000" />
<glyph unicode="&#xd;" horiz-adv-x="210" />
<glyph unicode=" "  horiz-adv-x="210" />
<glyph unicode="&#x09;" horiz-adv-x="210" />
<glyph unicode="&#xa0;" horiz-adv-x="210" />
<glyph unicode="!" horiz-adv-x="359" d="M226 780l-14 -568h-68l-14 568h96zM244 51q0 -27 -19 -46t-45 -19q-27 0 -46 19t-19 46q0 26 19 45t46 19q26 0 45 -19t19 -45z" />
<glyph unicode="&#x22;" horiz-adv-x="332" d="M287 818l-22 -223h-51l-19 223h92zM97 818l-22 -223h-51l-19 223h92z" />
<glyph unicode="#" horiz-adv-x="702" d="M643 496h-111l-20 -139h104v-64h-113l-41 -293h-69l41 293h-205l-41 -293h-69l41 293h-101v64h110l20 139h-104v64h113l41 294h69l-41 -294h205l41 294h69l-41 -294h102v-64zM463 496h-205l-20 -139h205z" />
<glyph unicode="$" horiz-adv-x="615" d="M555 188q0 -88 -65 -140q-55 -43 -141 -54v-113h-68v112q-119 7 -221 76l43 65q37 -28 91 -47q60 -21 114 -21q65 0 105 24q52 31 52 97q0 60 -67 113q-31 24 -121 72q-207 110 -207 229q0 76 59 126q55 47 143 58v121h67v-119q99 -5 196 -65l-35 -68q-91 58 -176 58 q-62 0 -107 -24q-56 -29 -56 -85q0 -51 62 -98q23 -17 121.5 -71.5t141.5 -95.5q69 -67 69 -150z" />
<glyph unicode="%" horiz-adv-x="916" d="M420 664q0 -76 -52.5 -127.5t-128.5 -51.5q-75 0 -127.5 52t-52.5 127q0 76 52.5 127.5t127.5 51.5q76 0 128.5 -51.5t52.5 -127.5zM750 846l-517 -866h-79l517 866h79zM857 177q0 -76 -52.5 -127.5t-128.5 -51.5q-75 0 -127.5 52t-52.5 127q0 76 52.5 127.5t127.5 51.5 q76 0 128.5 -51.5t52.5 -127.5zM353 664q0 50 -32.5 81t-81.5 31q-48 0 -80.5 -31.5t-32.5 -80.5t32.5 -80.5t80.5 -31.5q49 0 81.5 31t32.5 81zM790 177q0 50 -32.5 81.5t-81.5 31.5q-48 0 -80.5 -31.5t-32.5 -81.5q0 -49 32.5 -80.5t80.5 -31.5q49 0 81.5 31t32.5 81z" />
<glyph unicode="&#x26;" horiz-adv-x="664" d="M605 0h-92l-53 77q-50 -43 -69 -54q-54 -31 -121 -31q-91 0 -151 56.5t-60 151.5q0 75 50 139q24 30 98 92q-52 73 -64 94q-29 52 -29 100q0 65 53.5 112.5t127.5 48.5q89 0 150 -63l-48 -46q-46 46 -103 46q-43 0 -71 -27t-28 -68q0 -48 84 -166l198 -280l65 64l43 -52 l-69 -67zM420 133l-171 239q-110 -78 -110 -172q0 -63 38.5 -102t92.5 -39q75 0 150 74z" />
<glyph unicode="'" horiz-adv-x="210" d="M151 818l-22 -223h-51l-19 223h92z" />
<glyph unicode="(" horiz-adv-x="326" d="M267 -186l-65 -35q-143 250 -143 530q0 281 143 530l63 -37q-123 -242 -123 -493t125 -495z" />
<glyph unicode=")" horiz-adv-x="326" d="M267 309q0 -280 -143 -530l-65 35q124 244 124 495t-122 493l63 37q143 -249 143 -530z" />
<glyph unicode="*" horiz-adv-x="535" d="M440 702l-112 -68l111 -68l-27 -47l-114 62l-3 -130h-55l-3 130l-115 -61l-26 45l110 69l-111 68l27 47l115 -62l3 130h55l3 -130l115 62z" />
<glyph unicode="+" horiz-adv-x="488" d="M429 245h-153v-153h-64v153h-153v64h153v153h64v-153h153v-64z" />
<glyph unicode="," horiz-adv-x="319" d="M224 49q0 -81 -78 -163l-24 20q11 10 24.5 37t13.5 43q0 12 -9 13q-56 8 -56 60q0 26 19 42.5t46 16.5q26 0 45 -21t19 -48z" />
<glyph unicode="-" horiz-adv-x="326" d="M267 245h-208v64h208v-64z" />
<glyph unicode="." horiz-adv-x="247" d="M188 51q0 -27 -19 -46t-45 -19q-27 0 -46 19t-19 46q0 26 19 45t46 19q26 0 45 -19t19 -45z" />
<glyph unicode="/" horiz-adv-x="418" d="M413 854l-275 -854h-79l275 854h79z" />
<glyph unicode="0" horiz-adv-x="659" d="M589 281q0 -150 -84 -230q-70 -65 -171 -65t-170 65q-84 79 -84 230q0 150 84 230q70 65 170 65q101 0 171 -65q84 -79 84 -230zM503 281q0 87 -31 144q-43 80 -138 80t-138 -80q-30 -57 -30 -144t30 -144q43 -80 138 -80t138 80q31 57 31 144z" />
<glyph unicode="1" horiz-adv-x="503" d="M433 0h-341v72h136l-1 411l-125 -48l-22 62l155 73h77v-498h121v-72z" />
<glyph unicode="2" horiz-adv-x="574" d="M504 0h-424v78l210 161q65 50 77 62q40 43 40 95q0 110 -123 110q-84 0 -151 -78l-50 49q30 38 77 65q61 35 128 35q99 0 153 -53q51 -49 51 -130q0 -101 -137 -202l-162 -120h311v-72z" />
<glyph unicode="3" horiz-adv-x="586" d="M516 3q0 -100 -61 -165t-160 -65q-134 0 -215 103l53 53q69 -85 155 -85q58 0 98 37q44 41 44 112q0 74 -41 120t-110 46h-51v77h51q73 0 112 44q34 39 34 101q0 56 -37 90.5t-93 34.5q-43 0 -85 -23q-37 -20 -56 -46l-53 47q27 33 70 58q59 35 123 35q96 0 157 -56 q58 -54 58 -133q0 -67 -34 -122q-32 -51 -79 -69q47 -15 81 -65q39 -56 39 -129z" />
<glyph unicode="4" horiz-adv-x="632" d="M562 0h-93v-232h-85l1 232h-305v50l257 512h88l-239 -489h199v237h84v-237h93v-73z" />
<glyph unicode="5" horiz-adv-x="563" d="M493 38q0 -109 -48 -180q-56 -85 -165 -85q-120 0 -200 103l57 48q35 -40 52 -53q36 -27 84 -27q68 0 103 54q30 48 30 131q0 187 -130 187q-53 0 -95 -32h-68l1 380h333v-74h-248v-224q42 22 97 22q102 0 154 -83q43 -68 43 -167z" />
<glyph unicode="6" horiz-adv-x="612" d="M542 240q0 -138 -81 -204q-61 -50 -150 -50t-145 53q-86 80 -86 273q0 207 63 321q65 118 188 118q42 0 88 -21q40 -18 54 -37l-35 -51q-20 14 -39 27q-26 14 -64 14q-72 0 -120 -71q-53 -78 -53 -214q26 38 79 60q42 18 79 18q79 0 141 -49q81 -63 81 -187zM457 236 q0 69 -29 113q-38 57 -119 57q-80 0 -117 -62q-27 -45 -27 -114q0 -64 30 -112q39 -62 115 -62q147 0 147 180z" />
<glyph unicode="7" horiz-adv-x="534" d="M464 507l-231 -731h-88l233 710h-298v72h384v-51z" />
<glyph unicode="8" horiz-adv-x="600" d="M530 206q0 -98 -62 -160t-163 -62t-163 62.5t-62 160.5q0 138 108 205q-82 55 -82 164q0 88 63 139q55 45 135 45q81 0 137 -45q63 -51 63 -139q0 -96 -86 -164q112 -61 112 -206zM429 571q0 59 -44 91q-35 26 -81 26q-45 0 -80 -26q-43 -32 -43 -91q0 -60 43 -95 q37 -30 81 -30t80 30q44 36 44 95zM454 212q0 91 -56 133q-39 30 -93 30t-93 -29q-56 -42 -56 -133q0 -88 56 -128q40 -29 93 -29q54 0 93 29q56 40 56 127z" />
<glyph unicode="9" horiz-adv-x="612" d="M542 250q0 -218 -58 -341q-65 -138 -196 -138q-66 0 -125 37l32 60q52 -29 89 -29q81 0 129 92q46 88 46 221q-50 -66 -153 -66q-83 0 -146 51q-80 64 -80 185q0 129 67 195q60 60 160 60q235 0 235 -327zM457 332q0 64 -30 112q-40 62 -115 62q-147 0 -147 -180 q0 -170 148 -170q80 0 117 62q27 46 27 114z" />
<glyph unicode=":" horiz-adv-x="247" d="M188 476q0 -26 -19 -45t-45 -19q-27 0 -46 19t-19 45q0 27 19 46t46 19q26 0 45 -19t19 -46zM188 51q0 -27 -19 -46t-45 -19q-27 0 -46 19t-19 46q0 26 19 45t46 19q26 0 45 -19t19 -45z" />
<glyph unicode=";" horiz-adv-x="250" d="M191 476q0 -26 -19 -45t-45 -19q-27 0 -46 19t-19 45q0 27 19 46t46 19q26 0 45 -19t19 -46zM188 49q0 -81 -78 -163l-24 20q11 10 24.5 37t13.5 43q0 12 -9 13q-56 8 -56 60q0 26 19 42.5t46 16.5q26 0 45 -21t19 -48z" />
<glyph unicode="&#x3c;" horiz-adv-x="657" d="M564 275h-424l140 -251l-67 -34l-188 320v20l188 309l61 -41l-128 -239h418v-84z" />
<glyph unicode="=" horiz-adv-x="583" d="M478 387h-373v64h373v-64zM478 236h-373v64h373v-64z" />
<glyph unicode="&#x3e;" horiz-adv-x="657" d="M598 310l-188 -320l-67 34l140 251h-424v84h418l-128 239l61 41l188 -309v-20z" />
<glyph unicode="?" horiz-adv-x="538" d="M477 595q0 -63 -41 -106q-43 -36 -85.5 -73t-59 -66.5t-16.5 -68.5v-87h-80v95q0 100 91 179l68 54q32 32 32 79q0 108 -134 108q-73 0 -147 -50l-43 65q96 63 193 63q102 0 162 -50t60 -142zM295 46q0 -26 -18.5 -44t-44.5 -18t-44 18t-18 44t18.5 44t43.5 18 q26 0 44.5 -18t18.5 -44z" />
<glyph unicode="@" horiz-adv-x="1033" d="M523 468q-66 0 -114 -32l-27 66q70 36 152 36q173 0 173 -177v-294h119q47 91 47 195q0 180 -90 289q-95 115 -264 115q-168 0 -265 -115q-91 -110 -91 -289q0 -180 91 -289q96 -115 265 -115q44 0 81 5l7 -68q-60 -7 -88 -7q-202 0 -320 133q-114 130 -114 341t114 341 q118 133 320 133t318 -133q111 -129 111 -341q0 -69 -21 -140q-23 -78 -61 -122h-232q-7 11 -11 39q-24 -21 -34 -27q-37 -21 -92 -21q-79 0 -126 38q-52 42 -52 123q0 77 59 123q54 42 131 42q72 0 114 -18v66q0 103 -100 103zM623 233q-37 17 -99 17q-115 0 -115 -104 q0 -87 101 -87q61 0 113 54v120z" />
<glyph unicode="A" horiz-adv-x="708" d="M662 0h-84l-86 246h-290l-87 -246h-83l275 785h80zM469 316l-119 364h-7l-13 -47l-106 -317h245z" />
<glyph unicode="B" horiz-adv-x="698" d="M625 211q0 -211 -256 -211h-252v780h263q107 0 169 -59q58 -53 58 -134q0 -131 -115 -180v-6q133 -49 133 -190zM522 579q0 58 -39 92t-115 34h-171v-272h163q162 0 162 146zM538 215q0 71 -46 111.5t-121 40.5h-174v-292h193q148 0 148 140z" />
<glyph unicode="C" horiz-adv-x="684" d="M635 143q-45 -74 -98 -110q-63 -41 -153 -41q-119 0 -202 95q-95 110 -95 302q0 200 97 309q81 90 196 90q164 0 250 -147l-73 -36q-53 108 -168 108q-107 0 -163 -96q-49 -86 -49 -228t57 -231q59 -92 159 -92q110 0 176 113z" />
<glyph unicode="D" horiz-adv-x="742" d="M664 395q0 -209 -93 -310q-79 -85 -218 -85h-236v780h239q126 0 205 -74q103 -98 103 -311zM574 395q0 150 -46 223q-56 89 -191 89h-133v-635h133q133 0 191 96q46 78 46 227z" />
<glyph unicode="E" horiz-adv-x="642" d="M575 0h-457l-1 780h441v-72h-354v-271h315v-72h-315v-293h371v-72z" />
<glyph unicode="F" horiz-adv-x="584" d="M566 708h-359v-271h315v-72h-315v-365h-90v780h449v-72z" />
<glyph unicode="G" horiz-adv-x="799" d="M691 0h-64v97q-23 -39 -74 -69q-65 -36 -144 -36q-126 0 -216 91q-106 109 -106 304q0 203 109 311q88 88 214 88q165 0 250 -148l-72 -36q-57 111 -175 111q-117 0 -180 -101q-55 -89 -55 -225q0 -135 60 -225q65 -97 174 -97q92 0 145 61q48 55 48 138v66h-187v72h273 v-402z" />
<glyph unicode="H" horiz-adv-x="761" d="M643 0h-86v363h-353v-363h-87v780h87v-341h353v341h86v-780z" />
<glyph unicode="I" horiz-adv-x="320" d="M263 0h-205l-1 56h60v668h-60v56h206v-56h-60v-668h60v-56z" />
<glyph unicode="J" horiz-adv-x="360" d="M243 56q0 -99 -43 -164q-47 -70 -135 -84l-17 70q112 17 112 168v734h83v-724z" />
<glyph unicode="K" horiz-adv-x="669" d="M659 0h-96l-259 400l-100 -125v-275h-87v780h87v-385l310 385h98l-255 -316z" />
<glyph unicode="L" horiz-adv-x="567" d="M540 0h-422l-1 780h87v-708h336v-72z" />
<glyph unicode="M" horiz-adv-x="876" d="M759 0h-76v691h-6l-209 -696h-60l-209 703h-6v-698h-76v780h126l192 -661h6l193 661h125v-780z" />
<glyph unicode="N" horiz-adv-x="763" d="M645 0h-110l-334 689h-8v-689h-76v780h122l324 -677h7v677h75v-780z" />
<glyph unicode="O" horiz-adv-x="830" d="M743 390q0 -198 -105 -306q-90 -92 -222 -92q-133 0 -223 92q-106 107 -106 306t106 306q90 92 223 92q132 0 222 -92q105 -107 105 -306zM653 390q0 135 -57 223q-64 100 -181 100t-181 -100q-57 -88 -57 -223t57 -223q64 -101 181 -101t181 101q57 88 57 223z" />
<glyph unicode="P" horiz-adv-x="636" d="M608 562q0 -104 -63 -163q-65 -62 -184 -62h-157v-337h-86v780h258q112 0 175 -66q57 -60 57 -152zM523 562q0 60 -37 101q-42 45 -116 45h-166v-299h163q78 0 119 45q37 41 37 108z" />
<glyph unicode="Q" horiz-adv-x="845" d="M776 1l-57 -56l-112 111q-84 -64 -191 -64q-133 0 -223 92q-106 107 -106 306q0 198 106 306q90 91 223 91q132 0 222 -91q105 -108 105 -306q0 -173 -80 -277zM653 390q0 135 -57 223q-64 99 -181 99t-181 -99q-57 -88 -57 -223t57 -223q64 -101 181 -101q75 0 134 46 l-111 110l57 56l106 -105q52 90 52 217z" />
<glyph unicode="R" horiz-adv-x="670" d="M631 0h-86l-181 347h-160v-347h-87v780h262q107 0 169 -62q58 -57 58 -147q0 -168 -161 -214zM518 568q0 60 -37 98q-41 42 -116 42h-161v-288h164q150 0 150 148z" />
<glyph unicode="S" horiz-adv-x="614" d="M557 188q0 -100 -82 -152q-69 -44 -167 -44q-132 0 -246 77l43 65q37 -28 91 -47q60 -21 114 -21q65 0 105 24q52 31 52 97q0 60 -67 113q-31 24 -121 72q-207 110 -207 229q0 87 76 139q70 48 175 48q107 0 214 -66l-35 -68q-91 58 -176 58q-62 0 -107 -24 q-56 -29 -56 -85q0 -51 62 -98q23 -17 121.5 -71.5t141.5 -95.5q69 -67 69 -150z" />
<glyph unicode="T" horiz-adv-x="527" d="M590 708h-228v-708h-86v708h-229v72h543v-72z" />
<glyph unicode="U" horiz-adv-x="735" d="M638 276q0 -149 -88 -224q-72 -60 -182 -60q-112 0 -183 60q-87 74 -87 224v504h86v-503q0 -114 59 -168q48 -44 125 -44q75 0 122 42q61 55 61 170v503h87v-504z" />
<glyph unicode="V" horiz-adv-x="633" d="M605 780l-237 -780h-103l-237 780h91l194 -677h8l20 77l175 600h89z" />
<glyph unicode="W" horiz-adv-x="949" d="M921 780l-179 -780h-96l-168 658h-6l-13 -61l-155 -597h-97l-179 780h83l150 -666h6l10 56l155 610h85l166 -666h6l10 56l140 610h82z" />
<glyph unicode="X" horiz-adv-x="657" d="M623 0h-95l-198 338l-201 -338h-95l252 414l-232 366h94l187 -297l171 297h94l-223 -366z" />
<glyph unicode="Y" horiz-adv-x="592" d="M633 780l-259 -458v-322h-87v322l-258 458h99l199 -361h7l199 361h100z" />
<glyph unicode="Z" horiz-adv-x="605" d="M568 0h-530l-1 67l412 641h-395v72h507v-58l-421 -650h428v-72z" />
<glyph unicode="[" horiz-adv-x="334" d="M275 -199h-216v1017h216v-70h-131v-877h131v-70z" />
<glyph unicode="\" horiz-adv-x="312" d="M413 0h-79l-275 854h79z" />
<glyph unicode="]" horiz-adv-x="334" d="M275 -199h-216v70h131v877h-131v70h216v-1017z" />
<glyph unicode="^" horiz-adv-x="394" d="M281 627h-71l-67 86l-67 -86h-71l106 146h64z" />
<glyph unicode="_" horiz-adv-x="516" d="M457 -64h-398v64h398v-64z" />
<glyph unicode="`" horiz-adv-x="246" d="M187 621h-66l-62 154l75 -1z" />
<glyph unicode="a" d="M449 0h-88q-10 13 -12 39q-48 -48 -126 -48q-79 0 -126 38q-52 42 -52 123q0 77 60 123q54 42 131 42q72 0 113 -18v66q0 103 -98 103q-67 0 -115 -32l-28 66q70 36 152 36q174 0 174 -177v-244q0 -61 3 -81q1 -4 12 -36zM349 113v120q-37 17 -99 17q-115 0 -115 -104 q0 -87 102 -87q61 0 112 54z" />
<glyph unicode="b" horiz-adv-x="575" d="M505 270q0 -155 -72 -225q-55 -53 -144 -53q-84 0 -134 46q-65 58 -65 185v595h85v-328q50 48 133 48q82 0 132 -53q65 -68 65 -215zM414 266q0 201 -119 201q-81 0 -120 -58v-193q0 -157 114 -157q59 0 87 36q38 47 38 171z" />
<glyph unicode="c" horiz-adv-x="454" d="M419 63q-63 -72 -159 -72q-92 0 -147 63q-63 70 -63 209q0 140 60 211q54 64 150 64q86 0 142 -62l-49 -49q-40 41 -93 41q-120 0 -120 -205q0 -203 120 -203q68 0 110 52z" />
<glyph unicode="d" horiz-adv-x="560" d="M465 0h-85v39q-44 -46 -131 -46q-83 0 -135 59q-64 72 -64 218q0 132 64 206q54 62 130 62q85 0 136 -50v330h85v-818zM380 123v278q-44 64 -123 64q-117 0 -117 -199q0 -113 36 -161q31 -41 92 -41q76 0 112 59z" />
<glyph unicode="e" horiz-adv-x="526" d="M461 247h-320q1 -91 42 -140q38 -44 100 -44q73 0 121 57l48 -49q-75 -80 -170 -80q-99 0 -161 62q-71 71 -71 208q0 139 66 213q58 65 150 65q85 0 138 -60q57 -67 57 -189v-43zM374 307q-5 83 -30 122t-78 39q-111 0 -124 -161h232z" />
<glyph unicode="f" horiz-adv-x="342" d="M302 463h-100v-399h74v-64h-211v64h52v399h-72v67h72v135q0 80 58 120q48 32 127 32v-68q-100 0 -100 -82v-137h100v-67z" />
<glyph unicode="g" horiz-adv-x="552" d="M517 -120q0 -86 -72 -129q-61 -36 -161 -36q-101 0 -162 36q-72 43 -72 128q0 81 65 124q-32 48 -32 98q0 56 36 98q-53 55 -53 139q0 88 57.5 143.5t147.5 55.5q55 0 99 -22q16 38 34 56q33 35 94 45v-74q-30 0 -54.5 -19t-27.5 -39q62 -53 62 -146q0 -87 -58.5 -142.5 t-148.5 -55.5q-52 0 -95 20q-20 -26 -20 -57q0 -43 28 -71q47 12 100 12q100 0 161 -36q72 -43 72 -128zM394 338q0 135 -123 135q-122 0 -122 -135q0 -134 122 -134q123 0 123 134zM440 -120q0 99 -156 99q-157 0 -157 -100q0 -99 157 -99q156 0 156 100z" />
<glyph unicode="h" horiz-adv-x="599" d="M504 0h-85v340q0 62 -19 91q-23 34 -80 34q-76 0 -140 -71v-394h-85v818h85v-341q66 61 149 61q80 0 121 -37q54 -49 54 -166v-335z" />
<glyph unicode="i" horiz-adv-x="288" d="M195 674q0 -22 -16 -38t-38 -16t-37.5 16t-15.5 38t15.5 38t37.5 16q23 0 38.5 -15.5t15.5 -38.5zM248 0h-208v64h59v465h85v-465h64v-64z" />
<glyph unicode="j" horiz-adv-x="260" d="M180 674q0 -22 -16 -37.5t-38 -15.5t-37.5 15.5t-15.5 37.5t15.5 38t37.5 16q23 0 38.5 -15.5t15.5 -38.5zM167 -24q0 -201 -129 -247l-38 63q51 24 67 66q16 39 16 134v537h84v-553z" />
<glyph unicode="k" horiz-adv-x="528" d="M513 0h-92l-168 291l-73 -72v-219h-85v818h85v-496l206 207h104l-181 -181z" />
<glyph unicode="l" horiz-adv-x="285" d="M230 -11q-140 0 -140 148v681h85v-660q0 -52 8 -69q11 -21 47 -24v-76z" />
<glyph unicode="m" horiz-adv-x="885" d="M790 0h-85v333q0 132 -99 132q-77 0 -121 -79v-386h-85v333q0 132 -98 132q-71 0 -122 -71v-394h-85v530h85v-53q54 61 139 61q94 0 142 -73q61 73 157 73q73 0 119 -43q53 -50 53 -146v-349z" />
<glyph unicode="n" horiz-adv-x="599" d="M504 0h-85v340q0 63 -18 91q-22 34 -79 34q-76 0 -142 -71v-394h-85v529h85v-52q66 61 149 61q81 0 121 -35q54 -46 54 -163v-340z" />
<glyph unicode="o" horiz-adv-x="531" d="M481 264q0 -141 -65 -211q-56 -61 -150 -61q-98 0 -153 63q-63 70 -63 209q0 140 63 211q56 63 153 63q94 0 150 -62q65 -71 65 -212zM393 264q0 206 -127 206q-128 0 -128 -206q0 -204 128 -204q127 0 127 204z" />
<glyph unicode="p" horiz-adv-x="565" d="M510 271q0 -146 -63 -218q-52 -59 -135 -59q-79 0 -132 41v-319h-85v814h85v-46q53 54 134 54q75 0 128 -56q68 -72 68 -211zM419 267q0 199 -114 199q-84 0 -125 -65v-285q36 -52 114 -52q61 0 90 41q35 48 35 162z" />
<glyph unicode="q" horiz-adv-x="560" d="M465 -285h-85v325q-45 -46 -135 -46q-82 0 -133 63q-62 75 -62 222q0 131 64 201q54 58 130 58q96 0 136 -55v46h85v-814zM380 125v276q-43 65 -121 65q-118 0 -118 -191q0 -211 123 -211q77 0 116 61z" />
<glyph unicode="r" horiz-adv-x="417" d="M402 510l-36 -62q-35 17 -68 17q-61 0 -103 -62v-339h75v-64h-211v64h51v466h85v-43q47 51 111 51q52 0 96 -28z" />
<glyph unicode="s" horiz-adv-x="435" d="M395 136q0 -72 -57 -110q-50 -34 -126 -34q-56 0 -102 19q-20 8 -70 38l40 63q65 -47 129 -47q98 0 98 66q0 38 -33 65q-19 16 -80 47q-67 34 -93 56q-51 43 -51 99q0 69 55 107q48 34 120 34q83 0 159 -44l-33 -62q-70 35 -118 35q-38 0 -63 -15q-30 -18 -30 -51 q0 -30 33 -56q15 -11 78 -46q71 -39 95 -61q49 -44 49 -103z" />
<glyph unicode="t" horiz-adv-x="350" d="M295 -8q-79 0 -128 39q-57 44 -57 126v307h-72v66l72 -1v123h85v-122h100v-66h-100v-308q0 -40 25.5 -66t74.5 -26v-72z" />
<glyph unicode="u" horiz-adv-x="587" d="M492 0h-85v47q-56 -55 -139 -55q-80 0 -120 37q-53 49 -53 166v335h85v-340q0 -69 18 -95q21 -30 79 -30q77 0 130 65v400h85v-530z" />
<glyph unicode="v" horiz-adv-x="496" d="M476 530l-184 -530h-88l-184 530h91l119 -363l16 -65h4l18 65l119 363h89z" />
<glyph unicode="w" horiz-adv-x="776" d="M745 530l-158 -530h-82l-113 396h-4l-18 -70l-95 -326h-81l-162 530h87l114 -428h3l15 66l99 362h80l114 -428h3l15 66l99 362h84z" />
<glyph unicode="x" horiz-adv-x="485" d="M470 0h-100l-131 214l-128 -214h-96l176 284l-154 246h99l111 -182l106 182h95l-153 -253z" />
<glyph unicode="y" horiz-adv-x="481" d="M461 529l-207 -616q-63 -189 -220 -202l-8 66q61 6 97 46q35 37 60 119l15 49l-178 538h91l125 -423h4l135 423h86z" />
<glyph unicode="z" horiz-adv-x="462" d="M412 0h-362v60l259 404h-239v66h342v-51l-265 -412h265v-67z" />
<glyph unicode="{" horiz-adv-x="345" d="M286 -199h-72q-93 0 -93 110v309q0 78 -62 78v52q62 0 62 78v280q0 110 93 110h72v-57h-38q-45 0 -45 -56v-301q0 -67 -74 -79v-2q74 -12 74 -79v-330q0 -56 45 -56h38v-57z" />
<glyph unicode="|" horiz-adv-x="278" d="M173 -200h-68v1054h68v-1054z" />
<glyph unicode="}" horiz-adv-x="345" d="M286 298q-62 0 -62 -78v-309q0 -110 -93 -110h-72v57h38q45 0 45 56v330q0 67 74 79v2q-74 12 -74 79v301q0 56 -45 56h-38v57h72q93 0 93 -110v-280q0 -78 62 -78v-52z" />
<glyph unicode="~" horiz-adv-x="423" d="M316 674q-49 -38 -96 -38q-22 0 -57 15.5t-56 15.5q-34 0 -62 -25l-34 52q48 41 101 41q23 0 58.5 -16.5t48.5 -16.5q19 0 25 2q15 4 41 24z" />
<glyph unicode="&#xa1;" horiz-adv-x="359" d="M244 722q0 -27 -19 -45.5t-45 -18.5q-27 0 -46 18.5t-19 45.5t19 46t46 19q26 0 45 -19t19 -46zM229 0h-96l14 584h68z" />
<glyph unicode="&#xa2;" horiz-adv-x="454" d="M419 63q-51 -58 -122 -69v-103h-61v101q-83 9 -131 71q-55 71 -55 200q0 130 53 201q47 65 133 73v98h61v-100q62 -11 105 -59l-49 -49q-38 39 -93 39q-120 0 -120 -203q0 -200 120 -200q70 0 110 49z" />
<glyph unicode="&#xa3;" horiz-adv-x="648" d="M586 165q-30 -175 -192 -175q-53 0 -95 17q-24 9 -86 44q-47 -57 -152 -59v64q101 1 101 85v189h-94v61h94l1 123q1 90 41 148q47 70 140 70q57 0 99 -26q34 -22 73 -72l-47 -46q-36 45 -50 56q-28 22 -71 22q-106 0 -106 -149v-126h99v-61h-99v-182q0 -16 -2 -26 q82 -60 141 -60q66 0 97 26t44 88z" />
<glyph unicode="&#xa4;" horiz-adv-x="714" d="M632 143q-46 -76 -93 -110q-59 -41 -148 -41q-101 0 -175 73q-82 80 -105 228h-50v58h44q-1 14 -1 38q0 14 2 52h-45v58h52q25 146 108 222q72 66 166 66q83 0 138.5 -35t100.5 -112l-72 -36q-56 108 -159 108q-152 0 -192 -213h335v-58h-342q-2 -19 -2 -52q0 -24 1 -38 h343v-58h-337q42 -227 198 -227q68 0 115 43q21 20 52 70z" />
<glyph unicode="&#xa5;" horiz-adv-x="592" d="M633 780l-245 -434h138v-63h-152v-283h-87v283h-144v63h131l-245 434h99l199 -361h7l199 361h100z" />
<glyph unicode="&#xa7;" horiz-adv-x="475" d="M413 10q0 -70 -56 -109q-50 -33 -126 -33q-50 0 -89 14q-31 12 -79 42l38 58q63 -45 127 -45q101 0 101 69q0 40 -38 70q-9 8 -71 44q-83 48 -116 87q-43 49 -43 120q0 122 123 165q-106 58 -106 135q0 68 53 106q47 34 118 34q82 0 156 -43l-31 -58q-70 35 -116 35 q-39 0 -65 -16q-31 -19 -31 -54q0 -32 43 -62l70 -42q62 -40 91 -73q47 -55 47 -125q0 -52 -24 -96q-28 -51 -80 -79q104 -54 104 -144zM337 323q0 59 -30 91q-26 28 -66 28q-41 0 -69 -28q-32 -32 -32 -91t32 -91q28 -28 69 -28q40 0 66 28q30 32 30 91z" />
<glyph unicode="&#xa8;" horiz-adv-x="414" d="M355 673q0 -22 -16 -38t-38 -16t-37.5 16t-15.5 38t15.5 38t37.5 16q23 0 38.5 -15.5t15.5 -38.5zM167 673q0 -22 -16 -38t-38 -16t-38 16t-16 38q0 23 16 38.5t38 15.5q23 0 38.5 -15.5t15.5 -38.5z" />
<glyph unicode="&#xa9;" horiz-adv-x="986" d="M927 259q0 -212 -113 -341q-118 -133 -321 -133q-202 0 -320 133q-114 130 -114 341t114 341q118 133 320 133q203 0 321 -133q113 -129 113 -341zM844 259q0 180 -88 287q-94 112 -263 112q-168 0 -262 -113q-89 -107 -89 -286q0 -180 89 -287q93 -112 262 -112t263 113 q88 107 88 286zM660 60q-63 -71 -159 -71q-92 0 -147 62q-63 71 -63 209q0 140 60 211q54 64 150 64q86 0 142 -62l-49 -49q-36 39 -93 39q-120 0 -120 -203q0 -199 120 -199q70 0 110 48z" />
<glyph unicode="&#xaa;" horiz-adv-x="431" d="M215 767q-49 0 -89 -24l-19 52q52 26 116 26q133 0 133 -125v-160q0 -41 5 -61q6 -16 11 -31h-67q-7 9 -12 31q-52 -37 -104 -37q-56 0 -91 27q-39 29 -39 86q0 53 47 86q41 29 97 29q50 0 89 -14v48q0 67 -77 67zM292 600q-37 14 -80 14q-87 0 -87 -67q0 -57 75 -57 q53 0 92 46v64z" />
<glyph unicode="&#xab;" horiz-adv-x="661" d="M602 60h-93l-207 228l1 17l206 225h93l-206 -232zM359 60h-93l-207 228v17l207 225h93l-206 -232z" />
<glyph unicode="&#xac;" horiz-adv-x="498" d="M439 174h-64v120h-316v64h380v-184z" />
<glyph unicode="&#xad;" horiz-adv-x="326" d="M267 245h-208v64h208v-64z" />
<glyph unicode="&#xae;" horiz-adv-x="986" d="M927 259q0 -212 -113 -341q-118 -133 -321 -133q-202 0 -320 133q-114 130 -114 341t114 341q118 133 320 133q203 0 321 -133q113 -129 113 -341zM844 259q0 180 -88 287q-94 112 -263 112q-168 0 -262 -113q-89 -107 -89 -286q0 -180 89 -287q93 -112 262 -112t263 113 q88 107 88 286zM701 0h-91l-88 202h-125v-202h-82v529h178q203 0 203 -163q0 -107 -97 -153zM613 367q0 88 -109 88h-107v-179h104q56 0 81 17q31 20 31 74z" />
<glyph unicode="&#xaf;" horiz-adv-x="366" d="M307 663h-248v64h248v-64z" />
<glyph unicode="&#xb0;" horiz-adv-x="479" d="M420 664q0 -76 -52.5 -127.5t-128.5 -51.5q-75 0 -127.5 52t-52.5 127q0 76 52.5 127.5t127.5 51.5q76 0 128.5 -51.5t52.5 -127.5zM353 664q0 50 -32.5 81t-81.5 31q-48 0 -80.5 -31.5t-32.5 -80.5t32.5 -80.5t80.5 -31.5q49 0 81.5 31t32.5 81z" />
<glyph unicode="&#xb1;" horiz-adv-x="489" d="M429 353h-153v-153h-64v153h-153v64h153v153h64v-153h153v-64zM430 97h-370v64h370v-64z" />
<glyph unicode="&#xb4;" horiz-adv-x="312" d="M187 775l-62 -154h-66l53 153z" />
<glyph unicode="&#xb6;" horiz-adv-x="594" d="M267 471h-9q-72 0 -122.5 50.5t-50.5 122.5t50.5 122.5t122.5 50.5h9v-346zM509 750l-88 -1v-836h-84l-1 904h173v-67z" />
<glyph unicode="&#xb7;" horiz-adv-x="247" d="M188 290q0 -27 -19 -46t-45 -19q-27 0 -46 19t-19 46q0 26 19 45t46 19q26 0 45 -19t19 -45z" />
<glyph unicode="&#xb8;" horiz-adv-x="282" d="M223 -143q0 -45 -26.5 -75.5t-69.5 -30.5q-37 0 -68 29l29 30q19 -17 39 -17q25 0 39.5 18.5t14.5 45.5q0 54 -44 64q-18 4 -41 0l34 105h50l-25 -71q68 -19 68 -98z" />
<glyph unicode="&#xba;" horiz-adv-x="450" d="M391 627q0 -97 -53 -148q-45 -42 -113 -42q-70 0 -114 44q-52 50 -52 146t52 147q44 45 114 45q68 0 113 -43q53 -51 53 -149zM329 627q0 72 -31 110q-27 34 -73 34t-73 -34q-31 -38 -31 -110t31 -109q27 -34 73 -34t73 34q31 37 31 109z" />
<glyph unicode="&#xbb;" horiz-adv-x="661" d="M602 288l-207 -228h-93l206 238l-206 232h93l207 -225v-17zM358 288l-206 -228h-93l206 238l-206 232h93l206 -225v-17z" />
<glyph unicode="&#xbf;" horiz-adv-x="538" d="M368 726q0 -26 -18 -44.5t-44 -18.5t-44 18.5t-18 44.5t18.5 44t43.5 18q26 0 44 -18t18 -44zM476 46q-95 -62 -193 -62q-102 0 -162 50t-60 141q0 63 41 106q43 37 87 74q41 36 57.5 66t16.5 69v86h80l1 -95q1 -98 -92 -179l-68 -54q-32 -31 -32 -78q0 -109 134 -109 q74 0 148 50z" />
<glyph unicode="&#xc0;" horiz-adv-x="713" d="M380 802h-66l-62 153h75zM667 0h-93l-75 216h-300l-73 -216h-94l271 748h93zM476 288l-125 371h-3l-16 -46l-110 -325h254z" />
<glyph unicode="&#xc1;" horiz-adv-x="713" d="M443 952l-62 -154l-66 1l53 152zM667 0h-93l-75 216h-300l-73 -216h-94l271 748h93zM476 288l-125 371h-3l-16 -46l-110 -325h254z" />
<glyph unicode="&#xc2;" horiz-adv-x="713" d="M490 793h-71l-67 86l-67 -86h-71l106 146h64zM667 0h-93l-75 216h-300l-73 -216h-94l271 748h93zM476 288l-125 371h-3l-16 -46l-110 -325h254z" />
<glyph unicode="&#xc3;" horiz-adv-x="713" d="M502 833q-49 -38 -96 -38q-22 0 -57 16t-56 16q-32 0 -62 -25l-34 51q48 41 101 41q23 0 58.5 -16.5t48.5 -16.5q30 0 66 26zM667 0h-93l-75 216h-300l-73 -216h-94l271 748h93zM476 288l-125 371h-3l-16 -46l-110 -325h254z" />
<glyph unicode="&#xc4;" horiz-adv-x="713" d="M513 847q0 -22 -16 -38t-38 -16t-38 16t-16 38q0 23 16 38.5t38 15.5t38 -16t16 -38zM291 847q0 -22 -15.5 -38t-37.5 -16t-38 16t-16 38q0 23 16 38.5t38 15.5t37.5 -16t15.5 -38zM667 0h-93l-75 216h-300l-73 -216h-94l271 748h93zM476 288l-125 371h-3l-16 -46 l-110 -325h254z" />
<glyph unicode="&#xc5;" horiz-adv-x="713" d="M450 895q0 -41 -29.5 -70.5t-70.5 -29.5t-70 29.5t-29 70.5t29 70.5t70 29.5t70.5 -29.5t29.5 -70.5zM667 0h-93l-75 216h-300l-73 -216h-94l271 748h93zM403 895q0 22 -15.5 37t-37.5 15t-37 -15t-15 -37t15 -37t37 -15t37.5 15t15.5 37zM476 288l-125 371h-3l-16 -46 l-110 -325h254z" />
<glyph unicode="&#xc6;" horiz-adv-x="953" d="M885 0h-402v246h-221l-142 -246h-88l440 780h396v-72h-299v-271h261v-72h-261v-293h316v-72zM483 316v329l-185 -329h185z" />
<glyph unicode="&#xc7;" horiz-adv-x="684" d="M635 143q-84 -139 -222 -150l-19 -54q68 -18 68 -97q0 -45 -27 -75.5t-70 -30.5q-36 0 -67 29l29 29q20 -17 38 -17q55 0 55 65q0 23 -12.5 41.5t-31.5 22.5t-41 -1l28 88q-113 9 -189 104q-87 108 -87 292q0 200 97 309q81 90 196 90q164 0 250 -147l-73 -36 q-53 108 -168 108q-107 0 -163 -96q-49 -86 -49 -228t57 -231q59 -92 159 -92q110 0 176 113z" />
<glyph unicode="&#xc8;" horiz-adv-x="643" d="M575 0h-458v726h440v-72h-348v-240h310v-72h-310v-271h366v-71zM277 953l62 -153h66l-54 153h-74z" />
<glyph unicode="&#xc9;" horiz-adv-x="643" d="M446 953l-63 -153h-66l54 153h75zM575 0h-458v726h440v-72h-348v-240h310v-72h-310v-271h366v-71z" />
<glyph unicode="&#xca;" horiz-adv-x="643" d="M485 800h-71l-67 86l-67 -86h-71l106 146h64zM575 0h-458v726h440v-72h-348v-240h310v-72h-310v-271h366v-71z" />
<glyph unicode="&#xcb;" horiz-adv-x="643" d="M499 848q0 -22 -15.5 -38t-38.5 -16q-22 0 -38 16t-16 38t16 38t38 16q23 0 38.5 -15.5t15.5 -38.5zM298 848q0 -22 -15.5 -38t-38.5 -16q-22 0 -38 16t-16 38q0 23 16 38.5t38 15.5q23 0 38.5 -15.5t15.5 -38.5zM575 0h-458v726h440v-72h-348v-240h310v-72h-310v-271 h366v-71z" />
<glyph unicode="&#xcc;" horiz-adv-x="344" d="M206 800h-66l-63 153h76zM286 0h-205v56h60v614h-60v56h205v-56h-59v-614h59v-56z" />
<glyph unicode="&#xcd;" horiz-adv-x="320" d="M253 953l-62 -153h-66l53 153h75zM263 0h-206v56h60v614h-60v56h206v-56h-60v-614h60v-56z" />
<glyph unicode="&#xce;" horiz-adv-x="386" d="M327 800h-71l-67 86l-67 -86h-71l106 146h64zM292 0h-205v56h60v614h-60v56h205v-56h-59v-614h59v-56z" />
<glyph unicode="&#xcf;" horiz-adv-x="377" d="M342 847q0 -22 -15.5 -38t-38.5 -16q-22 0 -38 16t-16 38t16 38t38 16t38 -16t16 -38zM143 847q0 -22 -15.5 -38t-38.5 -16q-22 0 -38 16t-16 38t16 38t38 16t38 -16t16 -38zM292 0h-205v56h60v614h-60v56h205v-56h-59v-614h59v-56z" />
<glyph unicode="&#xd1;" horiz-adv-x="768" d="M543 830q-47 -38 -96 -38q-22 0 -57 15.5t-56 15.5q-34 0 -62 -25l-34 52q48 41 100 41q23 0 59 -16.5t49 -16.5q19 0 25 2q15 4 41 24zM650 0h-116l-338 635h-3v-635h-76v730h115l341 -644h3v644h74v-730z" />
<glyph unicode="&#xd2;" horiz-adv-x="805" d="M441 800h-66l-62 153h75zM718 361q0 -171 -92 -273q-87 -96 -224 -96q-136 0 -223 97q-92 102 -92 273t92 273q87 96 223 96q137 0 224 -97q92 -102 92 -273zM623 361q0 106 -45 187q-60 108 -176 108q-115 0 -175 -107q-45 -82 -45 -187q0 -106 45 -188 q60 -108 175 -108q116 0 176 108q45 81 45 187z" />
<glyph unicode="&#xd3;" horiz-adv-x="805" d="M486 954l-63 -154h-65l53 153zM718 361q0 -171 -92 -273q-87 -96 -224 -96q-136 0 -223 97q-92 102 -92 273t92 273q87 96 223 96q137 0 224 -97q92 -102 92 -273zM623 361q0 106 -45 187q-60 108 -176 108q-115 0 -175 -107q-45 -82 -45 -187t45 -187q60 -108 175 -108 q116 0 176 107q45 82 45 187z" />
<glyph unicode="&#xd4;" horiz-adv-x="805" d="M539 800h-71l-67 86l-67 -86h-71l106 146h64zM718 361q0 -171 -92 -273q-87 -96 -224 -96q-136 0 -223 97q-92 102 -92 273t92 273q87 96 223 96q137 0 224 -97q92 -102 92 -273zM623 361q0 106 -45 187q-60 108 -176 108q-115 0 -175 -107q-45 -82 -45 -187 q0 -106 45 -188q60 -108 175 -108q116 0 176 108q45 81 45 187z" />
<glyph unicode="&#xd5;" horiz-adv-x="805" d="M555 803q-48 -37 -96 -37q-22 0 -57 15.5t-56 15.5q-32 0 -62 -25l-34 51q48 41 101 41q23 0 58.5 -16t48.5 -16q19 0 25 2q15 4 41 24zM718 361q0 -171 -92 -273q-87 -96 -224 -96q-136 0 -223 97q-92 102 -92 273t92 273q87 96 223 96q137 0 224 -97q92 -102 92 -273z M623 361q0 106 -45 187q-60 108 -176 108q-115 0 -175 -107q-45 -82 -45 -187t45 -187q60 -108 175 -108q116 0 176 107q45 82 45 187z" />
<glyph unicode="&#xd6;" horiz-adv-x="805" d="M568 852q0 -22 -15.5 -38t-38.5 -16q-22 0 -38 16t-16 38q0 23 16 38.5t38 15.5q23 0 38.5 -15.5t15.5 -38.5zM339 852q0 -22 -15.5 -38t-38.5 -16q-22 0 -38 16t-16 38q0 23 16 38.5t38 15.5q23 0 38.5 -15.5t15.5 -38.5zM718 361q0 -171 -92 -273q-87 -96 -224 -96 q-136 0 -223 97q-92 102 -92 273t92 273q87 96 223 96q137 0 224 -97q92 -102 92 -273zM623 361q0 106 -45 187q-60 108 -176 108q-115 0 -175 -107q-45 -82 -45 -187t45 -187q60 -108 175 -108q116 0 176 107q45 82 45 187z" />
<glyph unicode="&#xd8;" horiz-adv-x="830" d="M743 390q0 -198 -105 -306q-90 -92 -222 -92q-74 0 -139 32l-39 -83h-79l57 122q-129 106 -129 327q0 199 106 306q90 92 223 92q67 0 128 -27l37 79h79l-54 -115q137 -106 137 -335zM653 390q0 168 -83 257l-261 -554q47 -27 106 -27q117 0 181 100q57 89 57 224z M511 691q-43 22 -96 22q-117 0 -181 -100q-57 -88 -57 -223q0 -159 76 -249z" />
<glyph unicode="&#xd9;" horiz-adv-x="740" d="M406 800h-66l-62 153h75zM638 276q0 -149 -88 -224q-72 -60 -182 -60q-112 0 -183 60q-87 74 -87 224v483h86v-482q0 -114 59 -168q48 -44 125 -44q75 0 122 42q61 55 61 170v482h87v-483z" />
<glyph unicode="&#xda;" horiz-adv-x="740" d="M461 954l-63 -154h-65l53 153zM638 276q0 -149 -88 -224q-72 -60 -182 -60q-112 0 -183 60q-87 74 -87 224v483h86v-482q0 -114 59 -168q48 -44 125 -44q75 0 122 42q61 55 61 170v482h87v-483z" />
<glyph unicode="&#xdb;" horiz-adv-x="740" d="M513 800h-71l-67 86l-67 -86h-71l106 146h64zM638 276q0 -149 -88 -224q-72 -60 -182 -60q-112 0 -183 60q-87 74 -87 224v483h86v-482q0 -114 59 -168q48 -44 125 -44q75 0 122 42q61 55 61 170v482h87v-483z" />
<glyph unicode="&#xdc;" horiz-adv-x="740" d="M516 846q0 -22 -16 -38t-38 -16t-38 16t-16 38q0 23 16 38.5t38 15.5q23 0 38.5 -15.5t15.5 -38.5zM326 846q0 -22 -15.5 -38t-37.5 -16t-38 16t-16 38q0 23 16 38.5t38 15.5t37.5 -16t15.5 -38zM638 276q0 -149 -88 -224q-72 -60 -182 -60q-112 0 -183 60 q-87 74 -87 224v483h86v-482q0 -114 59 -168q48 -44 125 -44q75 0 122 42q61 55 61 170v482h87v-483z" />
<glyph unicode="&#xdf;" horiz-adv-x="557" d="M512 174q0 -81 -46.5 -131.5t-117.5 -50.5q-63 0 -114 29l39 63q29 -19 68 -19q35 0 59 28t24 71q0 38 -33 81q-31 39 -62 77q-33 49 -33 98q0 56 38 117.5t38 109.5q0 40 -23 68.5t-66 28.5q-50 0 -78 -37q-25 -32 -25 -75v-831h-85v829q0 87 50 134.5t133 47.5 q98 0 149 -57q40 -45 40 -100q0 -66 -39.5 -132t-39.5 -94q0 -45 62 -121t62 -134z" />
<glyph unicode="&#xe0;" d="M299 621h-66l-62 153h75zM250 468q-66 0 -114 -32l-28 66q70 36 152 36q174 0 174 -177v-244q0 -61 3 -81q1 -4 12 -36h-88q-10 13 -12 39q-48 -48 -126 -48q-79 0 -126 38q-52 42 -52 123q0 77 60 123q54 42 131 42q72 0 113 -18v66q0 103 -99 103zM349 233 q-37 17 -99 17q-115 0 -115 -104q0 -87 102 -87q61 0 112 54v120z" />
<glyph unicode="&#xe1;" d="M354 775l-62 -154h-66l53 153zM250 468q-66 0 -114 -32l-28 66q70 36 152 36q174 0 174 -177v-244q0 -61 3 -81q1 -4 12 -36h-88q-10 13 -12 39q-48 -48 -126 -48q-79 0 -126 38q-52 42 -52 123q0 77 60 123q54 42 131 42q72 0 113 -18v66q0 103 -99 103zM349 233 q-37 17 -99 17q-115 0 -115 -104q0 -87 102 -87q61 0 112 54v120z" />
<glyph unicode="&#xe2;" d="M393 627h-71l-67 86l-67 -86h-71l106 146h64zM250 468q-66 0 -114 -32l-28 66q70 36 152 36q174 0 174 -177v-244q0 -61 3 -81q1 -4 12 -36h-88q-10 13 -12 39q-48 -48 -126 -48q-79 0 -126 38q-52 42 -52 123q0 77 60 123q54 42 131 42q72 0 113 -18v66q0 103 -99 103z M349 233q-37 17 -99 17q-115 0 -115 -104q0 -87 102 -87q61 0 112 54v120z" />
<glyph unicode="&#xe3;" d="M404 674q-49 -38 -97 -38q-21 0 -56 15.5t-57 15.5q-33 0 -61 -25l-34 52q47 41 100 41q23 0 59 -16.5t49 -16.5q31 0 66 26zM250 468q-66 0 -114 -32l-28 66q70 36 152 36q174 0 174 -177v-244q0 -61 3 -81q1 -4 12 -36h-88q-10 13 -12 39q-48 -48 -126 -48 q-79 0 -126 38q-52 42 -52 123q0 77 60 123q54 42 131 42q72 0 113 -18v66q0 103 -99 103zM349 233q-37 17 -99 17q-115 0 -115 -104q0 -87 102 -87q61 0 112 54v120z" />
<glyph unicode="&#xe4;" d="M411 673q0 -22 -16 -38t-38 -16t-38 16t-16 38q0 23 16 38.5t38 15.5q23 0 38.5 -15.5t15.5 -38.5zM222 673q0 -22 -16 -38t-38 -16t-37.5 16t-15.5 38t15.5 38t37.5 16q23 0 38.5 -15.5t15.5 -38.5zM250 468q-66 0 -114 -32l-28 66q70 36 152 36q174 0 174 -177v-244 q0 -61 3 -81q1 -4 12 -36h-88q-10 13 -12 39q-48 -48 -126 -48q-79 0 -126 38q-52 42 -52 123q0 77 60 123q54 42 131 42q72 0 113 -18v66q0 103 -99 103zM349 233q-37 17 -99 17q-115 0 -115 -104q0 -87 102 -87q61 0 112 54v120z" />
<glyph unicode="&#xe5;" d="M362 687q0 -41 -29.5 -70.5t-70.5 -29.5t-70 29.5t-29 70.5t29 70.5t70 29.5t70.5 -29.5t29.5 -70.5zM250 468q-66 0 -114 -32l-28 66q70 36 152 36q174 0 174 -177v-244q0 -61 3 -81q1 -4 12 -36h-88q-10 13 -12 39q-48 -48 -126 -48q-79 0 -126 38q-52 42 -52 123 q0 77 60 123q54 42 131 42q72 0 113 -18v66q0 103 -99 103zM315 687q0 22 -15.5 37.5t-37.5 15.5t-37 -15.5t-15 -37.5t15 -37t37 -15t37.5 15t15.5 37zM349 233q-37 17 -99 17q-115 0 -115 -104q0 -87 102 -87q61 0 112 54v120z" />
<glyph unicode="&#xe6;" horiz-adv-x="780" d="M730 247h-311q0 -184 127 -184q38 0 76 19q32 16 51 38l48 -49q-75 -80 -175 -80q-108 0 -158 77q-55 -77 -165 -77q-79 0 -126 38q-52 42 -52 123q0 75 65 118q56 37 136 37h94l-1 58q-2 103 -99 103q-66 0 -114 -32l-28 66q70 36 152 36q110 0 151 -77q50 78 144 78 q84 0 132 -60q53 -66 53 -189v-43zM643 307q-6 86 -25 121q-22 40 -73 40q-111 0 -124 -161h222zM339 247h-78q-126 0 -126 -101q0 -87 102 -87q61 0 101 54z" />
<glyph unicode="&#xe7;" horiz-adv-x="454" d="M419 63q-53 -61 -128 -70l-19 -53q68 -18 68 -97q0 -45 -26.5 -75.5t-69.5 -30.5q-37 0 -68 29l30 29q19 -17 38 -17q55 0 55 65q0 23 -13 41t-32 22q-22 5 -40 0l27 86q-85 6 -135 69q-56 71 -56 202q0 140 60 211q54 64 150 64q86 0 142 -62l-49 -49q-38 39 -93 39 q-120 0 -120 -203q0 -200 120 -200q70 0 110 49z" />
<glyph unicode="&#xe8;" horiz-adv-x="526" d="M314 621h-66l-62 154l75 -1zM461 247h-320q1 -91 42 -140q38 -44 100 -44q73 0 121 57l48 -49q-75 -80 -170 -80q-99 0 -161 62q-71 71 -71 208q0 139 66 213q58 65 150 65q85 0 138 -60q57 -67 57 -189v-43zM374 307q-5 83 -30 122t-78 39q-111 0 -124 -161h232z" />
<glyph unicode="&#xe9;" horiz-adv-x="526" d="M374 775l-62 -154h-66l53 153zM461 247h-320q1 -91 42 -140q38 -44 100 -44q73 0 121 57l48 -49q-75 -80 -170 -80q-99 0 -161 62q-71 71 -71 208q0 139 66 213q58 65 150 65q85 0 138 -60q57 -67 57 -189v-43zM374 307q-5 83 -30 122t-78 39q-111 0 -124 -161h232z" />
<glyph unicode="&#xea;" horiz-adv-x="526" d="M410 627h-71l-67 86l-67 -86h-71l106 146h64zM461 247h-320q1 -91 42 -140q38 -44 100 -44q73 0 121 57l48 -49q-75 -80 -170 -80q-99 0 -161 62q-71 71 -71 208q0 139 66 213q58 65 150 65q85 0 138 -60q57 -67 57 -189v-43zM374 307q-5 83 -30 122t-78 39 q-111 0 -124 -161h232z" />
<glyph unicode="&#xeb;" horiz-adv-x="526" d="M425 673q0 -22 -16 -38t-38 -16t-38 16t-16 38q0 23 16 38.5t38 15.5q23 0 38.5 -15.5t15.5 -38.5zM236 673q0 -22 -16 -38t-38 -16t-37.5 16t-15.5 38t15.5 38t37.5 16q23 0 38.5 -15.5t15.5 -38.5zM461 247h-320q1 -91 42 -140q38 -44 100 -44q73 0 121 57l48 -49 q-75 -80 -170 -80q-99 0 -161 62q-71 71 -71 208q0 139 66 213q58 65 150 65q85 0 138 -60q57 -67 57 -189v-43zM374 307q-5 83 -30 122t-78 39q-111 0 -124 -161h232z" />
<glyph unicode="&#xec;" horiz-adv-x="288" d="M195 621h-66l-63 154l76 -1zM267 0h-208v64h59v465h85v-465h64v-64z" />
<glyph unicode="&#xed;" horiz-adv-x="288" d="M260 775l-62 -154h-66l53 153zM267 0h-208v64h59v465h85v-465h64v-64z" />
<glyph unicode="&#xee;" horiz-adv-x="288" d="M341 627h-71l-67 86l-67 -86h-71l106 146h64zM305 0h-209v64h60v465h85v-465h64v-64z" />
<glyph unicode="&#xef;" horiz-adv-x="288" d="M290 674q0 -22 -16 -38t-38 -16t-38 16t-16 38q0 23 16 38.5t38 15.5q23 0 38.5 -15.5t15.5 -38.5zM135 674q0 -22 -16 -38t-38 -16t-38 16t-16 38q0 23 16 38.5t38 15.5q23 0 38.5 -15.5t15.5 -38.5zM265 0h-209v64h60v465h85v-465h64v-64z" />
<glyph unicode="&#xf1;" horiz-adv-x="599" d="M452 674q-49 -38 -97 -38q-21 0 -56 15.5t-57 15.5q-33 0 -61 -25l-34 52q47 41 100 41q23 0 59 -16.5t49 -16.5q31 0 66 26zM504 0h-85v340q0 63 -18 91q-22 34 -79 34q-76 0 -142 -71v-394h-85v529h85v-52q66 61 149 61q81 0 121 -35q54 -46 54 -163v-340z" />
<glyph unicode="&#xf2;" horiz-adv-x="531" d="M319 621h-65l-63 154l75 -1zM481 264q0 -141 -65 -211q-56 -61 -150 -61q-98 0 -153 63q-63 70 -63 209q0 140 63 211q56 63 153 63q94 0 150 -62q65 -71 65 -212zM393 264q0 206 -127 206q-128 0 -128 -206q0 -204 128 -204q127 0 127 204z" />
<glyph unicode="&#xf3;" horiz-adv-x="531" d="M374 775l-62 -154h-66l53 153zM481 264q0 -141 -65 -211q-56 -61 -150 -61q-98 0 -153 63q-63 70 -63 209q0 140 63 211q56 63 153 63q94 0 150 -62q65 -71 65 -212zM393 264q0 206 -127 206q-128 0 -128 -206q0 -204 128 -204q127 0 127 204z" />
<glyph unicode="&#xf4;" horiz-adv-x="531" d="M400 627h-71l-67 86l-67 -86h-71l106 146h64zM481 264q0 -141 -65 -211q-56 -61 -150 -61q-98 0 -153 63q-63 70 -63 209q0 140 63 211q56 63 153 63q94 0 150 -62q65 -71 65 -212zM393 264q0 206 -127 206q-128 0 -128 -206q0 -204 128 -204q127 0 127 204z" />
<glyph unicode="&#xf5;" horiz-adv-x="531" d="M414 674q-49 -38 -97 -38q-21 0 -56 15.5t-57 15.5q-33 0 -61 -25l-34 52q47 41 100 41q23 0 59 -16.5t49 -16.5q31 0 66 26zM481 264q0 -141 -65 -211q-56 -61 -150 -61q-98 0 -153 63q-63 70 -63 209q0 140 63 211q56 63 153 63q94 0 150 -62q65 -71 65 -212zM393 264 q0 206 -127 206q-128 0 -128 -206q0 -204 128 -204q127 0 127 204z" />
<glyph unicode="&#xf6;" horiz-adv-x="531" d="M426 674q0 -22 -16 -37.5t-38 -15.5t-38 15.5t-16 37.5q0 23 16 38.5t38 15.5q23 0 38.5 -15.5t15.5 -38.5zM237 674q0 -22 -16 -37.5t-38 -15.5t-37.5 15.5t-15.5 37.5t15.5 38t37.5 16q23 0 38.5 -15.5t15.5 -38.5zM481 264q0 -141 -65 -211q-56 -61 -150 -61 q-98 0 -153 63q-63 70 -63 209q0 140 63 211q56 63 153 63q94 0 150 -62q65 -71 65 -212zM393 264q0 206 -127 206q-128 0 -128 -206q0 -204 128 -204q127 0 127 204z" />
<glyph unicode="&#xf7;" horiz-adv-x="466" d="M298 436q0 -27 -19 -46t-45 -19q-27 0 -46 19t-19 46q0 26 19 45t46 19q26 0 45 -19t19 -45zM407 244h-348v64h348v-64zM298 120q0 -27 -19 -45.5t-45 -18.5q-27 0 -46 18.5t-19 45.5t19 46t46 19q26 0 45 -19t19 -46z" />
<glyph unicode="&#xf8;" horiz-adv-x="531" d="M481 264q0 -141 -65 -211q-56 -61 -150 -61q-44 0 -81 13l-32 -65h-74l49 99q-78 69 -78 225q0 140 63 211q56 63 153 63q55 0 99 -23l34 69h74l-55 -110q63 -72 63 -210zM393 264q0 76 -17 124l-159 -319q22 -9 49 -9q127 0 127 204zM333 450q-28 20 -67 20 q-128 0 -128 -206q0 -98 28 -148z" />
<glyph unicode="&#xf9;" horiz-adv-x="587" d="M333 621h-66l-62 154l75 -1zM492 0h-85v47q-56 -55 -139 -55q-80 0 -120 37q-53 49 -53 166v335h85v-340q0 -69 18 -95q21 -30 79 -30q77 0 130 65v400h85v-530z" />
<glyph unicode="&#xfa;" horiz-adv-x="587" d="M383 775l-62 -154h-66l53 153zM492 0h-85v47q-56 -55 -139 -55q-80 0 -120 37q-53 49 -53 166v335h85v-340q0 -69 18 -95q21 -30 79 -30q77 0 130 65v400h85v-530z" />
<glyph unicode="&#xfb;" horiz-adv-x="587" d="M430 627h-71l-67 86l-67 -86h-71l106 146h64zM492 0h-85v47q-56 -55 -139 -55q-80 0 -120 37q-53 49 -53 166v335h85v-340q0 -69 18 -95q21 -30 79 -30q77 0 130 65v400h85v-530z" />
<glyph unicode="&#xfc;" horiz-adv-x="587" d="M446 672q0 -22 -16 -38t-38 -16t-37.5 16t-15.5 38t15.5 38t37.5 16q23 0 38.5 -15.5t15.5 -38.5zM258 672q0 -22 -16 -38t-38 -16t-38 16t-16 38q0 23 16 38.5t38 15.5q23 0 38.5 -15.5t15.5 -38.5zM492 0h-85v47q-56 -55 -139 -55q-80 0 -120 37q-53 49 -53 166v335h85 v-340q0 -69 18 -95q21 -30 79 -30q77 0 130 65v400h85v-530z" />
<glyph unicode="&#xff;" horiz-adv-x="481" d="M390 673q0 -22 -16 -38t-38 -16t-38 16t-16 38q0 23 16 38.5t38 15.5q23 0 38.5 -15.5t15.5 -38.5zM201 673q0 -22 -16 -38t-38 -16t-37.5 16t-15.5 38t15.5 38t37.5 16q23 0 38.5 -15.5t15.5 -38.5zM461 529l-207 -616q-63 -189 -220 -202l-8 66q61 6 97 46 q35 37 60 119l15 49l-178 538h91l125 -423h4l135 423h86z" />
<glyph unicode="&#x152;" horiz-adv-x="1094" d="M1027 0h-457v106q-81 -115 -198 -115q-118 0 -198 100q-87 110 -87 298t87 298q79 100 196 100q58 0 110 -30q56 -33 90 -91v114h440v-72h-354v-271h315v-72h-315v-293h371v-72zM574 389q0 118 -42 207q-55 116 -162 116q-105 0 -156 -116q-37 -85 -37 -207t37 -207 q51 -116 156 -116q107 0 162 115q42 89 42 208z" />
<glyph unicode="&#x153;" horiz-adv-x="858" d="M793 247h-320q1 -91 42 -140q38 -44 100 -44q75 0 121 57l49 -49q-78 -80 -170 -80q-119 0 -181 93q-57 -92 -168 -92q-98 0 -153 63q-63 70 -63 209q0 140 63 211q56 63 153 63q110 0 167 -92q60 93 166 93q85 0 137 -60q57 -67 57 -189v-43zM707 307q-5 83 -30 122 t-78 39q-112 0 -125 -161h233zM393 264q0 206 -127 206q-128 0 -128 -206q0 -204 128 -204q127 0 127 204z" />
<glyph unicode="&#x178;" horiz-adv-x="592" d="M467 846q0 -22 -15 -37t-37 -15q-21 0 -36 15t-15 37q0 21 15 36.5t36 15.5q22 0 37 -15.5t15 -36.5zM297 846q0 -22 -15 -37t-36 -15t-36 15t-15 37q0 21 15 36.5t36 15.5t36 -15.5t15 -36.5zM633 780l-259 -458v-322h-87v322l-258 458h99l199 -361h7l199 361h100z" />
<glyph unicode="&#x2c6;" horiz-adv-x="394" d="M335 627h-71l-67 86l-67 -86h-71l106 146h64z" />
<glyph unicode="&#x2dc;" horiz-adv-x="423" d="M364 674q-49 -38 -97 -38q-21 0 -56 15.5t-57 15.5q-33 0 -61 -25l-34 52q47 41 100 41q23 0 59 -16.5t49 -16.5q31 0 66 26z" />
<glyph unicode="&#x2000;" horiz-adv-x="497" />
<glyph unicode="&#x2001;" horiz-adv-x="995" />
<glyph unicode="&#x2002;" horiz-adv-x="497" />
<glyph unicode="&#x2003;" horiz-adv-x="995" />
<glyph unicode="&#x2004;" horiz-adv-x="331" />
<glyph unicode="&#x2005;" horiz-adv-x="248" />
<glyph unicode="&#x2006;" horiz-adv-x="165" />
<glyph unicode="&#x2007;" horiz-adv-x="165" />
<glyph unicode="&#x2008;" horiz-adv-x="124" />
<glyph unicode="&#x2009;" horiz-adv-x="199" />
<glyph unicode="&#x200a;" horiz-adv-x="55" />
<glyph unicode="&#x2010;" horiz-adv-x="326" d="M267 245h-208v64h208v-64z" />
<glyph unicode="&#x2011;" horiz-adv-x="326" d="M267 245h-208v64h208v-64z" />
<glyph unicode="&#x2012;" horiz-adv-x="326" d="M267 245h-208v64h208v-64z" />
<glyph unicode="&#x2013;" horiz-adv-x="516" d="M457 244h-398v64h398v-64z" />
<glyph unicode="&#x2014;" horiz-adv-x="645" d="M586 244h-527v64h527v-64z" />
<glyph unicode="&#x2018;" horiz-adv-x="247" d="M188 647q0 -26 -18.5 -43t-45.5 -17t-46 21.5t-19 48.5q0 81 78 162l24 -19q-11 -10 -24.5 -37t-13.5 -43q0 -12 9 -13q24 -3 40 -19.5t16 -40.5z" />
<glyph unicode="&#x2019;" horiz-adv-x="247" d="M188 750q0 -81 -78 -162l-24 19q11 10 24.5 37t13.5 43q0 12 -9 13q-24 3 -40 20t-16 41q0 26 19 42.5t46 16.5q26 0 45 -21.5t19 -48.5z" />
<glyph unicode="&#x201a;" horiz-adv-x="247" d="M188 48q0 -81 -78 -163l-24 20q11 10 24.5 37t13.5 43q0 12 -9 13q-56 8 -56 60q0 26 19 42.5t46 16.5q26 0 45 -21t19 -48z" />
<glyph unicode="&#x201c;" horiz-adv-x="431" d="M372 647q0 -27 -18.5 -43.5t-46.5 -16.5q-27 0 -46 21.5t-19 48.5q0 80 79 162l23 -19q-11 -10 -24 -37t-13 -42q0 -13 9 -14q24 -3 40 -19.5t16 -40.5zM188 647q0 -26 -18.5 -43t-45.5 -17t-46 21.5t-19 48.5q0 81 78 162l24 -19q-11 -10 -24.5 -37t-13.5 -43 q0 -12 9 -13q24 -3 40 -19.5t16 -40.5z" />
<glyph unicode="&#x201d;" horiz-adv-x="437" d="M378 750q0 -81 -78 -162l-24 19q11 10 24.5 37t13.5 43q0 12 -9 13q-24 3 -40 20t-16 41q0 26 19 42.5t46 16.5q26 0 45 -21.5t19 -48.5zM188 750q0 -81 -78 -162l-24 19q11 10 24.5 37t13.5 43q0 12 -9 13q-24 3 -40 20t-16 41q0 26 19 42.5t46 16.5q26 0 45 -21.5 t19 -48.5z" />
<glyph unicode="&#x201e;" horiz-adv-x="473" d="M414 48q0 -81 -78 -163l-24 20q11 10 24.5 37t13.5 43q0 12 -9 13q-56 8 -56 60q0 26 19 42.5t46 16.5q26 0 45 -21t19 -48zM224 48q0 -81 -78 -163l-24 20q11 10 24.5 37t13.5 43q0 12 -9 13q-56 8 -56 60q0 26 19 42.5t46 16.5q26 0 45 -21t19 -48z" />
<glyph unicode="&#x2022;" horiz-adv-x="386" d="M327 352q0 -55 -39 -94.5t-95 -39.5q-55 0 -94.5 39.5t-39.5 94.5q0 56 39.5 95t94.5 39q56 0 95 -39t39 -95z" />
<glyph unicode="&#x2026;" horiz-adv-x="802" d="M717 51q0 -27 -19 -46t-46 -19q-26 0 -45 19t-19 46q0 26 19 45t45 19q27 0 46 -19t19 -45zM466 51q0 -27 -19 -46t-45 -19q-27 0 -46 19t-19 46q0 26 19 45t46 19q26 0 45 -19t19 -45zM214 51q0 -27 -19 -46t-45 -19q-27 0 -46 19t-19 46q0 26 19 45t46 19q26 0 45 -19 t19 -45z" />
<glyph unicode="&#x202f;" horiz-adv-x="199" />
<glyph unicode="&#x2039;" horiz-adv-x="418" d="M359 60h-93l-207 228v17l207 225h93l-206 -232z" />
<glyph unicode="&#x203a;" horiz-adv-x="417" d="M358 288l-206 -228h-93l206 238l-206 232h93l206 -225v-17z" />
<glyph unicode="&#x205f;" horiz-adv-x="248" />
<glyph unicode="&#x2122;" horiz-adv-x="889" d="M830 433h-67v246h-3l-107 -249h-35l-107 251h-4v-248h-67v385h73l121 -282h4l123 282h69v-385zM397 759h-138v-326h-67v326h-133v59h338v-59z" />
<glyph unicode="&#xe000;" horiz-adv-x="530" d="M0 530h530v-530h-530v530z" />
</font>
</defs>
</svg>
